<svg width="650" height="650" viewBox="0 0 650 650" fill="none" xmlns="http://www.w3.org/2000/svg">
<g id="angel">
<g id="left wing">
<path id="Vector" d="M151.505 424.285C136.864 424.285 124.995 435.483 124.995 449.297C124.995 463.111 136.864 474.309 151.505 474.309H165.171C154.236 477.393 146.264 486.952 146.264 498.271C146.264 512.085 158.133 523.283 172.774 523.283H282.091V424.285H151.505Z" fill="#D4D4FF"/>
<path id="Vector 2" d="M209.467 481.809H197.514C193.372 481.809 190.014 478.451 190.014 474.309C190.014 470.167 193.372 466.809 197.514 466.809H209.467C213.609 466.809 216.967 470.167 216.967 474.309C216.967 478.451 213.609 481.809 209.467 481.809Z" fill="#9EA2E3"/>
</g>
<g id="right wing">
<path id="Vector 3" d="M498.496 424.285C513.137 424.285 525.006 435.483 525.006 449.297C525.006 463.111 513.137 474.309 498.496 474.309H484.83C495.765 477.393 503.737 486.952 503.737 498.271C503.737 512.085 491.868 523.283 477.227 523.283H367.908V424.285H498.496Z" fill="#D4D4FF"/>
<path id="Vector 4" d="M452.486 481.809H440.533C436.391 481.809 433.033 478.451 433.033 474.309C433.033 470.167 436.391 466.809 440.533 466.809H452.486C456.628 466.809 459.986 470.167 459.986 474.309C459.986 478.451 456.628 481.809 452.486 481.809Z" fill="#9EA2E3"/>
</g>
<g id="ring">
<path id="Vector 5" d="M325 171.467C320.858 171.467 317.5 168.109 317.5 163.967V114.497C317.5 110.355 320.858 106.997 325 106.997C329.142 106.997 332.5 110.355 332.5 114.497V163.967C332.5 168.109 329.142 171.467 325 171.467Z" fill="#EBCA5F"/>
<path id="Vector 6" d="M325 120.948C299.538 120.948 275.491 117.306 257.289 110.693C230.903 101.106 225.364 88.696 225.364 79.974C225.364 71.251 230.902 58.842 257.289 49.255C275.491 42.642 299.538 39 325 39C350.462 39 374.509 42.642 392.711 49.255C419.097 58.841 424.636 71.251 424.636 79.974C424.636 88.697 419.097 101.106 392.711 110.693C374.509 117.306 350.462 120.948 325 120.948ZM325 54C273.335 54 240.364 69.383 240.364 79.974C240.364 90.564 273.335 105.948 325 105.948C376.665 105.948 409.636 90.564 409.636 79.974C409.636 69.383 376.665 54 325 54Z" fill="#F5EA72"/>
</g>
<g id="clothes">
<path id="Vector 7" d="M429.93 533.953C426.804 514.561 418.417 496.938 406.301 482.56C379.044 479.64 353.782 474.309 325 474.309C296.218 474.309 270.956 479.64 243.699 482.56C231.583 496.938 223.196 514.561 220.07 533.953C218.63 542.885 225.483 551 234.53 551H415.47C424.517 551 431.37 542.885 429.93 533.953Z" fill="#8CD6FE"/>
<path id="Vector 8" d="M325 495.566C353.782 495.566 381.371 491.073 406.301 482.56C386.804 459.422 357.626 444.71 325 444.71C292.374 444.71 263.197 459.422 243.699 482.559C268.629 491.073 296.218 495.566 325 495.566Z" fill="#5FC5FC"/>
</g>
<g id="face">
<path id="Vector 9" d="M156.339 380.011C180.004 380.011 199.189 362.831 199.189 341.638C199.189 320.445 180.004 303.265 156.339 303.265C132.674 303.265 113.489 320.445 113.489 341.638C113.489 362.831 132.674 380.011 156.339 380.011Z" fill="#B8866B"/>
<path id="Vector 10" d="M493.661 380.011C517.326 380.011 536.511 362.831 536.511 341.638C536.511 320.445 517.326 303.265 493.661 303.265C469.996 303.265 450.811 320.445 450.811 341.638C450.811 362.831 469.996 380.011 493.661 380.011Z" fill="#B8866B"/>
<path id="face 2" d="M492.098 332.701C492.098 414.011 417.286 465.113 325 465.113C232.714 465.113 157.902 414.011 157.902 332.701C157.902 251.391 232.714 185.476 325 185.476C417.286 185.476 492.098 251.391 492.098 332.701Z" fill="#CC9E83"/>
</g>
<path id="hair" d="M328.437 237.272C356.927 259.788 402.746 262.461 429.446 256.185C433.583 255.212 437.403 258.803 436.677 262.99C428.57 309.731 449.674 334.733 475.35 334.733C500.708 334.733 518.915 320.237 518.915 297.415C518.915 283.19 512.445 270.478 502.288 262.056C499.343 259.614 498.082 255.706 499.173 252.039C510.29 214.665 476.126 177.598 433.477 182.526C429.549 182.98 425.733 180.981 423.903 177.476C413.674 157.887 391.872 144.354 366.611 144.354C353.077 144.354 340.54 148.246 330.238 154.867C327.062 156.908 322.937 156.908 319.761 154.867C309.459 148.246 296.922 144.354 283.388 144.354C258.128 144.354 236.326 157.887 226.096 177.476C224.266 180.981 220.45 182.98 216.522 182.526C173.873 177.598 139.709 214.665 150.826 252.039C151.917 255.706 150.656 259.614 147.711 262.056C137.554 270.477 131.084 283.19 131.084 297.415C131.084 320.237 149.291 334.733 174.649 334.733C200.325 334.733 221.429 309.731 213.322 262.99C212.596 258.803 216.416 255.212 220.553 256.185C247.253 262.461 293.073 259.788 321.562 237.272C323.588 235.671 326.412 235.671 328.437 237.272Z" fill="#6171A3"/>
<path id="left blush" d="M245.441 384.024C261.654 384.024 274.797 373.557 274.797 360.646C274.797 347.735 261.654 337.268 245.441 337.268C229.228 337.268 216.085 347.735 216.085 360.646C216.085 373.557 229.228 384.024 245.441 384.024Z" fill="#EDA1AB"/>
<path id="right blush" d="M404.559 384.024C420.772 384.024 433.915 373.557 433.915 360.646C433.915 347.735 420.772 337.268 404.559 337.268C388.346 337.268 375.203 347.735 375.203 360.646C375.203 373.557 388.346 384.024 404.559 384.024Z" fill="#EDA1AB"/>
<g id="expression">
<path id="left eye" d="M276.522 342.707C272.38 342.707 269.022 339.349 269.022 335.207C269.022 331.638 266.118 328.734 262.549 328.734C258.98 328.734 256.076 331.638 256.076 335.207C256.076 339.349 252.718 342.707 248.576 342.707C244.434 342.707 241.076 339.349 241.076 335.207C241.076 323.367 250.709 313.734 262.549 313.734C274.389 313.734 284.022 323.367 284.022 335.207C284.022 339.349 280.664 342.707 276.522 342.707Z" fill="#4E5660"/>
<path id="right eye" d="M401.424 342.707C397.282 342.707 393.924 339.349 393.924 335.207C393.924 331.638 391.02 328.734 387.451 328.734C383.882 328.734 380.978 331.638 380.978 335.207C380.978 339.349 377.62 342.707 373.478 342.707C369.336 342.707 365.978 339.349 365.978 335.207C365.978 323.367 375.611 313.734 387.451 313.734C399.291 313.734 408.924 323.367 408.924 335.207C408.924 339.349 405.566 342.707 401.424 342.707Z" fill="#4E5660"/>
<path id="mouth" d="M325 365.791C317.152 365.791 309.689 362.392 304.524 356.466C301.802 353.343 302.128 348.606 305.25 345.884C308.372 343.162 313.11 343.487 315.831 346.61C318.147 349.267 321.488 350.79 324.999 350.79C328.51 350.79 331.851 349.267 334.166 346.61C336.887 343.486 341.625 343.162 344.748 345.883C347.871 348.604 348.196 353.342 345.475 356.464C340.311 362.392 332.848 365.791 325 365.791Z" fill="#4E5660"/>
</g>
</g>
</svg>
