<svg width="887" height="972" viewBox="0 0 887 972" fill="none" xmlns="http://www.w3.org/2000/svg">
<g id="rocket">
<path id="Vector" d="M339.456 387.826C333.94 386.442 328.119 388.302 324.414 392.617L244.88 485.467C236.828 494.868 233.629 507.214 236.102 519.344L254.64 610.226C256.517 619.424 262.863 626.935 271.618 630.319C280.373 633.704 290.121 632.415 297.696 626.872L378.41 567.807C379.038 567.348 379.623 566.846 380.162 566.308C383.741 562.727 385.313 557.525 384.202 552.478L350.455 399.15C349.232 393.595 344.972 389.211 339.456 387.826V387.826Z" fill="#E45A6E"/>
<path id="Vector_2" d="M552.543 387.827C547.026 389.211 542.767 393.597 541.544 399.151L507.798 552.478C506.52 558.284 508.792 564.297 513.589 567.808L594.303 626.874C601.878 632.417 611.626 633.705 620.382 630.32C624.023 628.912 627.247 626.79 629.907 624.13C633.641 620.396 636.264 615.598 637.36 610.227L655.898 519.344C658.373 507.216 655.173 494.868 647.119 485.468L567.586 392.618C563.887 388.298 558.061 386.443 552.543 387.827V387.827Z" fill="#D82E44"/>
<path id="Vector_3" d="M511.863 601.143C520.306 601.143 528.279 597.12 533.182 590.247C605.09 489.464 601.926 349.646 577.647 273.343C550.688 188.616 492.746 128.534 463.561 102.368C453.559 93.402 438.44 93.402 428.439 102.368C399.254 128.535 341.313 188.616 314.354 273.344C290.075 349.646 286.911 489.464 358.819 590.247C363.723 597.119 371.695 601.143 380.138 601.143L511.863 601.143Z" fill="#F1F1FB"/>
<path id="Vector_4" d="M446 95.6441L446 601.144L511.862 601.144C520.305 601.144 528.278 597.12 533.181 590.247C605.089 489.464 601.925 349.647 577.647 273.344C550.688 188.617 492.746 128.536 463.561 102.369C458.56 97.8863 452.28 95.6448 446 95.6441V95.6441Z" fill="#D7D6FB"/>
<path id="Vector_5" d="M499.008 365.042C485.426 378.625 466.68 387.033 446 387.033C425.967 387.034 407.132 379.233 392.967 365.067C378.801 350.902 371 332.067 371.001 312.034C371 270.681 404.644 237.035 445.999 237.035C466.032 237.035 484.867 244.837 499.032 259.002C513.197 273.167 520.999 292.002 520.999 312.035C520.999 332.71 512.585 351.462 499.008 365.042V365.042ZM386 312.035L386.007 312.028L386 312.035Z" fill="#466288"/>
<path id="Vector_6" d="M358.819 590.247C363.722 597.12 371.695 601.144 380.138 601.144L511.862 601.144C520.305 601.144 528.278 597.12 533.181 590.247C548.828 568.317 560.917 544.539 570.011 519.969L321.99 519.97C331.083 544.539 343.173 568.318 358.819 590.247V590.247Z" fill="#466288"/>
<g id="left-fire">
<path id="shadow" d="M393.136 733.532C395.85 730.818 397.53 727.067 397.529 722.925L397.529 653.667C397.53 645.383 390.813 638.667 382.529 638.667C374.245 638.666 367.53 645.382 367.529 653.667L367.53 722.924C367.529 731.208 374.245 737.924 382.53 737.924C386.673 737.925 390.422 736.246 393.136 733.532V733.532Z" fill="#354A67"/>
<path id="fire" d="M386.449 733.078C389.163 730.364 390.842 726.613 390.842 722.472L390.842 653.213C390.842 644.929 384.126 638.213 375.842 638.213C367.558 638.213 360.843 644.928 360.842 653.213L360.843 722.471C360.842 730.755 367.558 737.471 375.842 737.471C379.985 737.471 383.734 735.793 386.449 733.078V733.078Z" fill="#FDB43A"/>
<path id="fire_2" d="M386.449 733.078C389.163 730.364 390.842 726.613 390.842 722.472L390.842 653.213C390.842 644.929 384.126 638.213 375.842 638.213C367.558 638.213 360.843 644.928 360.842 653.213L360.843 722.471C360.842 730.755 367.558 737.471 375.842 737.471C379.985 737.471 383.734 735.793 386.449 733.078V733.078Z" fill="#FDB43A"/>
</g>
<g id="right-fire">
<path id="shadow_2" d="M510.842 638.213C502.559 638.213 495.843 644.929 495.843 653.213L495.843 722.47C495.842 730.753 502.558 737.469 510.842 737.469C514.985 737.469 518.735 735.791 521.449 733.077C524.163 730.363 525.842 726.612 525.842 722.47L525.842 653.212C525.842 644.928 519.126 638.212 510.842 638.213V638.213Z" fill="#354A67"/>
<path id="fire_3" d="M504.841 638.213C496.558 638.213 489.842 644.929 489.841 653.213L489.841 722.47C489.841 730.753 496.557 737.469 504.841 737.469C508.983 737.469 512.734 735.791 515.448 733.077C518.162 730.363 519.841 726.612 519.84 722.47L519.84 653.212C519.841 644.928 513.125 638.212 504.841 638.213V638.213Z" fill="#F57A21"/>
</g>
<g id="middle-fire">
<path id="Vector_7" d="M449.791 638.213C441.508 638.213 434.792 644.929 434.791 653.213L434.791 786.367C434.791 794.65 441.507 801.366 449.791 801.366C453.933 801.366 457.683 799.687 460.398 796.972C463.112 794.258 464.791 790.507 464.79 786.366L464.79 653.212C464.791 644.928 458.075 638.212 449.791 638.213V638.213Z" fill="#354A67"/>
<path id="Vector_8" d="M443.001 638.667C434.718 638.667 428.002 645.384 428.001 653.667L428.001 786.821C428 795.105 434.717 801.821 443.001 801.821C447.143 801.821 450.893 800.142 453.608 797.427C456.322 794.713 458.001 790.962 458 786.821L458 653.667C458.001 645.383 451.285 638.667 443.001 638.667V638.667Z" fill="#FDB43A"/>
<path id="Vector_9" d="M442.999 801.821C447.141 801.821 450.891 800.142 453.605 797.427C456.32 794.713 457.999 790.962 457.998 786.821L457.998 653.667C457.999 645.383 451.283 638.667 442.998 638.667L442.999 801.821Z" fill="#F57A21"/>
</g>
<path id="Vector_10" d="M446 601.144L511.862 601.144C520.305 601.144 528.278 597.12 533.181 590.247C548.828 568.317 560.917 544.539 570.011 519.969H446.001L446 601.144Z" fill="#354A67"/>
<path id="Vector_11" d="M446.001 387.034C466.681 387.034 485.427 378.627 499.009 365.042C512.586 351.462 521 332.709 521 312.035C521 292.001 513.198 273.167 499.033 259.002C484.867 244.836 466.033 237.034 446 237.035L446.001 387.034Z" fill="#354A67"/>
<path id="Vector_12" d="M414.196 280.23C406.048 288.378 401 299.629 401.001 312.035C401.001 324.054 405.681 335.355 414.18 343.855C422.68 352.354 433.981 357.034 446 357.034C470.812 357.034 491.001 336.846 491 312.033C490.999 300.013 486.319 288.713 477.82 280.214C469.32 271.714 458.02 267.034 446.001 267.034C433.594 267.034 422.345 272.081 414.196 280.23V280.23Z" fill="#4BBEFD"/>
<path id="Vector_13" d="M446 267.035L446 357.034C470.813 357.034 491.001 336.847 491 312.035C490.999 300.015 486.319 288.714 477.819 280.215C469.32 271.716 458.02 267.034 446 267.035V267.035Z" fill="#0590FB"/>
</g>
</svg>
